<mxfile host="app.diagrams.net" modified="2020-08-25T03:16:16.930Z" agent="5.0 (Windows NT 10.0; Win64; x64) AppleWebKit/537.36 (KHTML, like Gecko) Chrome/85.0.4183.48 Safari/537.36 OPR/71.0.3770.50 (Edition beta)" etag="QJ5KObv18GcHr-EPP0rf" version="13.6.5" type="github" pages="2">
  <diagram id="1bCNgV_drRjvz0shBA7y" name="包活干-架构图">
    <mxGraphModel dx="1102" dy="594" grid="1" gridSize="10" guides="1" tooltips="1" connect="1" arrows="1" fold="1" page="1" pageScale="1" pageWidth="827" pageHeight="1169" background="none" math="0" shadow="1">
      <root>
        <mxCell id="0" />
        <mxCell id="1" parent="0" />
        <mxCell id="ny-wrZLaJV0iAhvgu-0p-9" value="OpenAPI" style="rounded=0;whiteSpace=wrap;html=1;sketch=0;fontSize=14;gradientColor=#ffd966;fillColor=#fff2cc;strokeColor=#d6b656;verticalAlign=top;fontStyle=1" parent="1" vertex="1">
          <mxGeometry x="660" y="10" width="160" height="180" as="geometry" />
        </mxCell>
        <mxCell id="Akp1j36LhRfIPDxdq11B-76" value="Gateway" style="rounded=0;whiteSpace=wrap;html=1;sketch=0;fontSize=14;align=center;strokeColor=#d79b00;verticalAlign=top;fontStyle=1;fillColor=#ffcd28;gradientColor=#ffa500;perimeterSpacing=0;glass=0;shadow=0;" parent="1" vertex="1">
          <mxGeometry x="10" y="120" width="610" height="70" as="geometry" />
        </mxCell>
        <mxCell id="Akp1j36LhRfIPDxdq11B-5" value="Service" style="text;html=1;strokeColor=#6c8ebf;align=center;verticalAlign=top;whiteSpace=wrap;rounded=0;sketch=0;fontSize=14;fontStyle=1;gradientColor=#7ea6e0;fillColor=#dae8fc;perimeterSpacing=0;glass=0;shadow=0;" parent="1" vertex="1">
          <mxGeometry x="10" y="230" width="490" height="350" as="geometry" />
        </mxCell>
        <mxCell id="Akp1j36LhRfIPDxdq11B-6" value="DAO" style="text;html=1;strokeColor=#996185;align=center;verticalAlign=top;whiteSpace=wrap;rounded=0;sketch=0;fontSize=14;fontStyle=1;gradientColor=#d5739d;fillColor=#e6d0de;perimeterSpacing=0;glass=0;shadow=0;" parent="1" vertex="1">
          <mxGeometry x="10" y="620" width="810" height="70" as="geometry" />
        </mxCell>
        <mxCell id="Akp1j36LhRfIPDxdq11B-8" value="Database" style="text;html=1;strokeColor=#b85450;align=center;verticalAlign=top;whiteSpace=wrap;rounded=0;sketch=0;fontSize=14;fontStyle=1;gradientColor=#ea6b66;fillColor=#f8cecc;perimeterSpacing=0;glass=0;shadow=0;" parent="1" vertex="1">
          <mxGeometry x="10" y="730" width="810" height="350" as="geometry" />
        </mxCell>
        <mxCell id="Akp1j36LhRfIPDxdq11B-9" value="订单模块" style="rounded=0;whiteSpace=wrap;html=1;sketch=0;fontSize=14;align=center;strokeColor=#6c8ebf;labelPosition=center;verticalLabelPosition=middle;verticalAlign=top;fillColor=#dae8fc;fontStyle=0;perimeterSpacing=0;glass=0;shadow=0;" parent="1" vertex="1">
          <mxGeometry x="20" y="260" width="110" height="270" as="geometry" />
        </mxCell>
        <mxCell id="Akp1j36LhRfIPDxdq11B-10" value="用户模块" style="rounded=0;whiteSpace=wrap;html=1;sketch=0;fontSize=14;align=center;strokeColor=#6c8ebf;labelPosition=center;verticalLabelPosition=middle;verticalAlign=top;fillColor=#dae8fc;fontStyle=0;perimeterSpacing=0;glass=0;shadow=0;" parent="1" vertex="1">
          <mxGeometry x="140" y="260" width="110" height="230" as="geometry" />
        </mxCell>
        <mxCell id="Akp1j36LhRfIPDxdq11B-11" value="管理员模块" style="rounded=0;whiteSpace=wrap;html=1;sketch=0;fontSize=14;align=center;strokeColor=#6c8ebf;labelPosition=center;verticalLabelPosition=middle;verticalAlign=top;fillColor=#dae8fc;fontStyle=0;perimeterSpacing=0;glass=0;shadow=0;" parent="1" vertex="1">
          <mxGeometry x="260" y="260" width="110" height="190" as="geometry" />
        </mxCell>
        <mxCell id="Akp1j36LhRfIPDxdq11B-12" value="公共模块" style="rounded=0;whiteSpace=wrap;html=1;sketch=0;fontSize=14;align=center;strokeColor=#6c8ebf;labelPosition=center;verticalLabelPosition=middle;verticalAlign=top;fillColor=#dae8fc;fontStyle=0;perimeterSpacing=0;glass=0;shadow=0;" parent="1" vertex="1">
          <mxGeometry x="380" y="260" width="110" height="230" as="geometry" />
        </mxCell>
        <mxCell id="Akp1j36LhRfIPDxdq11B-13" value="API模块" style="rounded=0;whiteSpace=wrap;html=1;sketch=0;fontSize=14;align=center;labelPosition=center;verticalLabelPosition=middle;verticalAlign=middle;fontStyle=0;fillColor=#dae8fc;strokeColor=#6c8ebf;perimeterSpacing=0;glass=0;shadow=0;" parent="1" vertex="1">
          <mxGeometry x="380" y="500" width="110" height="70" as="geometry" />
        </mxCell>
        <mxCell id="Akp1j36LhRfIPDxdq11B-14" value="订单" style="rounded=0;whiteSpace=wrap;html=1;sketch=0;fontSize=14;align=center;strokeColor=#6c8ebf;fillColor=#dae8fc;perimeterSpacing=0;glass=0;shadow=0;" parent="1" vertex="1">
          <mxGeometry x="30" y="290" width="90" height="30" as="geometry" />
        </mxCell>
        <mxCell id="Akp1j36LhRfIPDxdq11B-15" value="保单" style="rounded=0;whiteSpace=wrap;html=1;sketch=0;fontSize=14;align=center;strokeColor=#6c8ebf;fillColor=#dae8fc;perimeterSpacing=0;glass=0;shadow=0;" parent="1" vertex="1">
          <mxGeometry x="30" y="330" width="90" height="30" as="geometry" />
        </mxCell>
        <mxCell id="Akp1j36LhRfIPDxdq11B-16" value="服务项目" style="rounded=0;whiteSpace=wrap;html=1;sketch=0;fontSize=14;align=center;strokeColor=#6c8ebf;fillColor=#dae8fc;perimeterSpacing=0;glass=0;shadow=0;" parent="1" vertex="1">
          <mxGeometry x="30" y="370" width="90" height="30" as="geometry" />
        </mxCell>
        <mxCell id="Akp1j36LhRfIPDxdq11B-17" value="资源匹配" style="rounded=0;whiteSpace=wrap;html=1;sketch=0;fontSize=14;align=center;strokeColor=#6c8ebf;fillColor=#dae8fc;perimeterSpacing=0;glass=0;shadow=0;" parent="1" vertex="1">
          <mxGeometry x="30" y="410" width="90" height="30" as="geometry" />
        </mxCell>
        <mxCell id="Akp1j36LhRfIPDxdq11B-18" value="库存" style="rounded=0;whiteSpace=wrap;html=1;sketch=0;fontSize=14;align=center;strokeColor=#6c8ebf;fillColor=#dae8fc;perimeterSpacing=0;glass=0;shadow=0;" parent="1" vertex="1">
          <mxGeometry x="30" y="450" width="90" height="30" as="geometry" />
        </mxCell>
        <mxCell id="Akp1j36LhRfIPDxdq11B-19" value="用户&lt;span style=&quot;color: rgba(0 , 0 , 0 , 0) ; font-family: monospace ; font-size: 0px&quot;&gt;%3CmxGraphModel%3E%3Croot%3E%3CmxCell%20id%3D%220%22%2F%3E%3CmxCell%20id%3D%221%22%20parent%3D%220%22%2F%3E%3CmxCell%20id%3D%222%22%20value%3D%22%E8%AE%A2%E5%8D%95%E7%AE%A1%E7%90%86%22%20style%3D%22rounded%3D0%3BwhiteSpace%3Dwrap%3Bhtml%3D1%3Bsketch%3D0%3BfontSize%3D14%3Balign%3Dcenter%3BstrokeColor%3D%236c8ebf%3BfillColor%3Dnone%3B%22%20vertex%3D%221%22%20parent%3D%221%22%3E%3CmxGeometry%20x%3D%2220%22%20y%3D%22120%22%20width%3D%22120%22%20height%3D%2230%22%20as%3D%22geometry%22%2F%3E%3C%2FmxCell%3E%3C%2Froot%3E%3C%2FmxGraphModel%3E&lt;/span&gt;" style="rounded=0;whiteSpace=wrap;html=1;sketch=0;fontSize=14;align=center;strokeColor=#6c8ebf;fillColor=#dae8fc;perimeterSpacing=0;glass=0;shadow=0;" parent="1" vertex="1">
          <mxGeometry x="150" y="330" width="90" height="30" as="geometry" />
        </mxCell>
        <mxCell id="Akp1j36LhRfIPDxdq11B-20" value="商户" style="rounded=0;whiteSpace=wrap;html=1;sketch=0;fontSize=14;align=center;strokeColor=#6c8ebf;fillColor=#dae8fc;perimeterSpacing=0;glass=0;shadow=0;" parent="1" vertex="1">
          <mxGeometry x="150" y="370" width="90" height="30" as="geometry" />
        </mxCell>
        <mxCell id="Akp1j36LhRfIPDxdq11B-21" value="服务商" style="rounded=0;whiteSpace=wrap;html=1;sketch=0;fontSize=14;align=center;strokeColor=#6c8ebf;fillColor=#dae8fc;perimeterSpacing=0;glass=0;shadow=0;" parent="1" vertex="1">
          <mxGeometry x="150" y="410" width="90" height="30" as="geometry" />
        </mxCell>
        <mxCell id="Akp1j36LhRfIPDxdq11B-22" value="技工" style="rounded=0;whiteSpace=wrap;html=1;sketch=0;fontSize=14;align=center;strokeColor=#6c8ebf;fillColor=#dae8fc;perimeterSpacing=0;glass=0;shadow=0;" parent="1" vertex="1">
          <mxGeometry x="150" y="450" width="90" height="30" as="geometry" />
        </mxCell>
        <mxCell id="Akp1j36LhRfIPDxdq11B-23" value="组织" style="rounded=0;whiteSpace=wrap;html=1;sketch=0;fontSize=14;align=center;strokeColor=#6c8ebf;fillColor=#dae8fc;perimeterSpacing=0;glass=0;shadow=0;" parent="1" vertex="1">
          <mxGeometry x="150" y="290" width="90" height="30" as="geometry" />
        </mxCell>
        <mxCell id="Akp1j36LhRfIPDxdq11B-24" value="字典" style="rounded=0;whiteSpace=wrap;html=1;sketch=0;fontSize=14;align=center;strokeColor=#6c8ebf;fillColor=#dae8fc;perimeterSpacing=0;glass=0;shadow=0;" parent="1" vertex="1">
          <mxGeometry x="270" y="290" width="90" height="30" as="geometry" />
        </mxCell>
        <mxCell id="Akp1j36LhRfIPDxdq11B-25" value="角色" style="rounded=0;whiteSpace=wrap;html=1;sketch=0;fontSize=14;align=center;strokeColor=#6c8ebf;fillColor=#dae8fc;perimeterSpacing=0;glass=0;shadow=0;" parent="1" vertex="1">
          <mxGeometry x="270" y="330" width="90" height="30" as="geometry" />
        </mxCell>
        <mxCell id="Akp1j36LhRfIPDxdq11B-26" value="权限（菜单）" style="rounded=0;whiteSpace=wrap;html=1;sketch=0;fontSize=14;align=center;strokeColor=#6c8ebf;fillColor=#dae8fc;perimeterSpacing=0;glass=0;shadow=0;" parent="1" vertex="1">
          <mxGeometry x="270" y="370" width="90" height="30" as="geometry" />
        </mxCell>
        <mxCell id="Akp1j36LhRfIPDxdq11B-27" value="组织" style="rounded=0;whiteSpace=wrap;html=1;sketch=0;fontSize=14;align=center;strokeColor=#6c8ebf;fillColor=#dae8fc;perimeterSpacing=0;glass=0;shadow=0;" parent="1" vertex="1">
          <mxGeometry x="270" y="410" width="90" height="30" as="geometry" />
        </mxCell>
        <mxCell id="Akp1j36LhRfIPDxdq11B-28" value="设备" style="rounded=0;whiteSpace=wrap;html=1;sketch=0;fontSize=14;align=center;strokeColor=#6c8ebf;fillColor=#dae8fc;perimeterSpacing=0;glass=0;shadow=0;" parent="1" vertex="1">
          <mxGeometry x="30" y="490" width="90" height="30" as="geometry" />
        </mxCell>
        <mxCell id="Akp1j36LhRfIPDxdq11B-30" value="订单" style="rounded=0;whiteSpace=wrap;html=1;sketch=0;fontSize=14;align=center;strokeColor=#b85450;fillColor=#f8cecc;verticalAlign=top;perimeterSpacing=0;glass=0;shadow=0;" parent="1" vertex="1">
          <mxGeometry x="20" y="760" width="150" height="310" as="geometry" />
        </mxCell>
        <mxCell id="Akp1j36LhRfIPDxdq11B-31" value="用户" style="rounded=0;whiteSpace=wrap;html=1;sketch=0;fontSize=14;align=center;strokeColor=#b85450;fillColor=#f8cecc;verticalAlign=top;perimeterSpacing=0;glass=0;shadow=0;" parent="1" vertex="1">
          <mxGeometry x="180" y="760" width="150" height="310" as="geometry" />
        </mxCell>
        <mxCell id="Akp1j36LhRfIPDxdq11B-32" value="管理员" style="rounded=0;whiteSpace=wrap;html=1;sketch=0;fontSize=14;align=center;strokeColor=#b85450;fillColor=#f8cecc;verticalAlign=top;perimeterSpacing=0;glass=0;shadow=0;" parent="1" vertex="1">
          <mxGeometry x="340" y="760" width="150" height="310" as="geometry" />
        </mxCell>
        <mxCell id="Akp1j36LhRfIPDxdq11B-33" value="Redis" style="rounded=0;whiteSpace=wrap;html=1;sketch=0;fontSize=14;align=center;strokeColor=#b85450;fillColor=#f8cecc;verticalAlign=top;perimeterSpacing=0;glass=0;shadow=0;" parent="1" vertex="1">
          <mxGeometry x="500" y="760" width="150" height="310" as="geometry" />
        </mxCell>
        <mxCell id="Akp1j36LhRfIPDxdq11B-35" value="订单表" style="rounded=0;whiteSpace=wrap;html=1;sketch=0;fontSize=14;align=center;strokeColor=#b85450;fillColor=#f8cecc;perimeterSpacing=0;glass=0;shadow=0;" parent="1" vertex="1">
          <mxGeometry x="30" y="790" width="130" height="30" as="geometry" />
        </mxCell>
        <mxCell id="Akp1j36LhRfIPDxdq11B-36" value="库存表" style="rounded=0;whiteSpace=wrap;html=1;sketch=0;fontSize=14;align=center;strokeColor=#b85450;fillColor=#f8cecc;perimeterSpacing=0;glass=0;shadow=0;" parent="1" vertex="1">
          <mxGeometry x="30" y="830" width="130" height="30" as="geometry" />
        </mxCell>
        <mxCell id="Akp1j36LhRfIPDxdq11B-37" value="保单表" style="rounded=0;whiteSpace=wrap;html=1;sketch=0;fontSize=14;align=center;strokeColor=#b85450;fillColor=#f8cecc;perimeterSpacing=0;glass=0;shadow=0;" parent="1" vertex="1">
          <mxGeometry x="30" y="870" width="130" height="30" as="geometry" />
        </mxCell>
        <mxCell id="Akp1j36LhRfIPDxdq11B-38" value="服务项目表" style="rounded=0;whiteSpace=wrap;html=1;sketch=0;fontSize=14;align=center;strokeColor=#b85450;fillColor=#f8cecc;perimeterSpacing=0;glass=0;shadow=0;" parent="1" vertex="1">
          <mxGeometry x="30" y="910" width="130" height="30" as="geometry" />
        </mxCell>
        <mxCell id="Akp1j36LhRfIPDxdq11B-39" value="资源匹配表" style="rounded=0;whiteSpace=wrap;html=1;sketch=0;fontSize=14;align=center;strokeColor=#b85450;fillColor=#f8cecc;perimeterSpacing=0;glass=0;shadow=0;" parent="1" vertex="1">
          <mxGeometry x="30" y="950" width="130" height="30" as="geometry" />
        </mxCell>
        <mxCell id="Akp1j36LhRfIPDxdq11B-40" value="用户表" style="rounded=0;whiteSpace=wrap;html=1;sketch=0;fontSize=14;align=center;strokeColor=#b85450;fillColor=#f8cecc;perimeterSpacing=0;glass=0;shadow=0;" parent="1" vertex="1">
          <mxGeometry x="190" y="790" width="130" height="30" as="geometry" />
        </mxCell>
        <mxCell id="Akp1j36LhRfIPDxdq11B-41" value="组织表" style="rounded=0;whiteSpace=wrap;html=1;sketch=0;fontSize=14;align=center;strokeColor=#b85450;fillColor=#f8cecc;perimeterSpacing=0;glass=0;shadow=0;" parent="1" vertex="1">
          <mxGeometry x="190" y="830" width="130" height="30" as="geometry" />
        </mxCell>
        <mxCell id="Akp1j36LhRfIPDxdq11B-42" value="商户表" style="rounded=0;whiteSpace=wrap;html=1;sketch=0;fontSize=14;align=center;strokeColor=#b85450;fillColor=#f8cecc;perimeterSpacing=0;glass=0;shadow=0;" parent="1" vertex="1">
          <mxGeometry x="190" y="870" width="130" height="30" as="geometry" />
        </mxCell>
        <mxCell id="Akp1j36LhRfIPDxdq11B-43" value="服务商表" style="rounded=0;whiteSpace=wrap;html=1;sketch=0;fontSize=14;align=center;strokeColor=#b85450;fillColor=#f8cecc;perimeterSpacing=0;glass=0;shadow=0;" parent="1" vertex="1">
          <mxGeometry x="190" y="910" width="130" height="30" as="geometry" />
        </mxCell>
        <mxCell id="Akp1j36LhRfIPDxdq11B-44" value="技工表" style="rounded=0;whiteSpace=wrap;html=1;sketch=0;fontSize=14;align=center;strokeColor=#b85450;fillColor=#f8cecc;perimeterSpacing=0;glass=0;shadow=0;" parent="1" vertex="1">
          <mxGeometry x="190" y="950" width="130" height="30" as="geometry" />
        </mxCell>
        <mxCell id="Akp1j36LhRfIPDxdq11B-45" value="设备表" style="rounded=0;whiteSpace=wrap;html=1;sketch=0;fontSize=14;align=center;strokeColor=#b85450;fillColor=#f8cecc;perimeterSpacing=0;glass=0;shadow=0;" parent="1" vertex="1">
          <mxGeometry x="30" y="990" width="130" height="30" as="geometry" />
        </mxCell>
        <mxCell id="Akp1j36LhRfIPDxdq11B-46" value="数据字典表" style="rounded=0;whiteSpace=wrap;html=1;sketch=0;fontSize=14;align=center;strokeColor=#b85450;fillColor=#f8cecc;perimeterSpacing=0;glass=0;shadow=0;" parent="1" vertex="1">
          <mxGeometry x="350" y="790" width="130" height="30" as="geometry" />
        </mxCell>
        <mxCell id="Akp1j36LhRfIPDxdq11B-47" value="角色表" style="rounded=0;whiteSpace=wrap;html=1;sketch=0;fontSize=14;align=center;strokeColor=#b85450;fillColor=#f8cecc;perimeterSpacing=0;glass=0;shadow=0;" parent="1" vertex="1">
          <mxGeometry x="350" y="830" width="130" height="30" as="geometry" />
        </mxCell>
        <mxCell id="Akp1j36LhRfIPDxdq11B-48" value="权限表" style="rounded=0;whiteSpace=wrap;html=1;sketch=0;fontSize=14;align=center;strokeColor=#b85450;fillColor=#f8cecc;perimeterSpacing=0;glass=0;shadow=0;" parent="1" vertex="1">
          <mxGeometry x="350" y="870" width="130" height="30" as="geometry" />
        </mxCell>
        <mxCell id="Akp1j36LhRfIPDxdq11B-50" value="日志记录" style="rounded=0;whiteSpace=wrap;html=1;sketch=0;fontSize=14;align=center;strokeColor=#6c8ebf;fillColor=#dae8fc;perimeterSpacing=0;glass=0;shadow=0;" parent="1" vertex="1">
          <mxGeometry x="390" y="290" width="90" height="30" as="geometry" />
        </mxCell>
        <mxCell id="Akp1j36LhRfIPDxdq11B-51" value="服务调用" style="rounded=0;whiteSpace=wrap;html=1;sketch=0;fontSize=14;align=center;strokeColor=#6c8ebf;fillColor=#dae8fc;perimeterSpacing=0;glass=0;shadow=0;" parent="1" vertex="1">
          <mxGeometry x="390" y="330" width="90" height="30" as="geometry" />
        </mxCell>
        <mxCell id="Akp1j36LhRfIPDxdq11B-52" value="缓存" style="rounded=0;whiteSpace=wrap;html=1;sketch=0;fontSize=14;align=center;strokeColor=#6c8ebf;fillColor=#dae8fc;perimeterSpacing=0;glass=0;shadow=0;" parent="1" vertex="1">
          <mxGeometry x="390" y="370" width="90" height="30" as="geometry" />
        </mxCell>
        <mxCell id="Akp1j36LhRfIPDxdq11B-53" value="消息队列" style="rounded=0;whiteSpace=wrap;html=1;sketch=0;fontSize=14;align=center;strokeColor=#6c8ebf;fillColor=#dae8fc;perimeterSpacing=0;glass=0;shadow=0;" parent="1" vertex="1">
          <mxGeometry x="390" y="410" width="90" height="30" as="geometry" />
        </mxCell>
        <mxCell id="Akp1j36LhRfIPDxdq11B-54" value="签名校验" style="rounded=0;whiteSpace=wrap;html=1;sketch=0;fontSize=14;align=center;strokeColor=#d6b656;fillColor=#fff2cc;perimeterSpacing=0;glass=0;shadow=0;" parent="1" vertex="1">
          <mxGeometry x="670" y="40" width="140" height="30" as="geometry" />
        </mxCell>
        <mxCell id="Akp1j36LhRfIPDxdq11B-56" value="MySQL" style="rounded=0;whiteSpace=wrap;html=1;sketch=0;fontSize=14;align=center;strokeColor=#9673a6;fillColor=#e1d5e7;verticalAlign=top;perimeterSpacing=0;glass=0;shadow=0;" parent="1" vertex="1">
          <mxGeometry x="20" y="650" width="470" height="30" as="geometry" />
        </mxCell>
        <mxCell id="Akp1j36LhRfIPDxdq11B-57" value="Redis" style="rounded=0;whiteSpace=wrap;html=1;sketch=0;fontSize=14;align=center;strokeColor=#9673a6;fillColor=#e1d5e7;verticalAlign=top;perimeterSpacing=0;glass=0;shadow=0;" parent="1" vertex="1">
          <mxGeometry x="500" y="650" width="150" height="30" as="geometry" />
        </mxCell>
        <mxCell id="Akp1j36LhRfIPDxdq11B-59" value="定时任务" style="rounded=0;whiteSpace=wrap;html=1;sketch=0;fontSize=14;align=center;strokeColor=#6c8ebf;fillColor=#dae8fc;perimeterSpacing=0;glass=0;shadow=0;" parent="1" vertex="1">
          <mxGeometry x="390" y="450" width="90" height="30" as="geometry" />
        </mxCell>
        <mxCell id="Akp1j36LhRfIPDxdq11B-62" value="Web" style="text;html=1;strokeColor=#d6b656;align=center;verticalAlign=top;whiteSpace=wrap;rounded=0;sketch=0;fontSize=14;fontStyle=1;gradientColor=#ffd966;fillColor=#fff2cc;perimeterSpacing=0;glass=0;shadow=0;" parent="1" vertex="1">
          <mxGeometry x="10" y="10" width="610" height="70" as="geometry" />
        </mxCell>
        <mxCell id="Akp1j36LhRfIPDxdq11B-63" value="小程序" style="rounded=0;whiteSpace=wrap;html=1;sketch=0;fontSize=14;align=center;strokeColor=#d6b656;verticalAlign=top;fillColor=#fff2cc;perimeterSpacing=0;glass=0;shadow=0;" parent="1" vertex="1">
          <mxGeometry x="20" y="40" width="190" height="30" as="geometry" />
        </mxCell>
        <mxCell id="Akp1j36LhRfIPDxdq11B-64" value="管理系统" style="rounded=0;whiteSpace=wrap;html=1;sketch=0;fontSize=14;align=center;strokeColor=#d6b656;verticalAlign=top;fillColor=#fff2cc;perimeterSpacing=0;glass=0;shadow=0;" parent="1" vertex="1">
          <mxGeometry x="420" y="40" width="190" height="30" as="geometry" />
        </mxCell>
        <mxCell id="Akp1j36LhRfIPDxdq11B-65" value="对外接口" style="rounded=0;whiteSpace=wrap;html=1;sketch=0;fontSize=14;align=center;strokeColor=#d6b656;verticalAlign=top;fillColor=#fff2cc;perimeterSpacing=0;glass=0;shadow=0;" parent="1" vertex="1">
          <mxGeometry x="670" y="80" width="140" height="30" as="geometry" />
        </mxCell>
        <mxCell id="Akp1j36LhRfIPDxdq11B-75" value="公众号" style="rounded=0;whiteSpace=wrap;html=1;sketch=0;fontSize=14;align=center;strokeColor=#d6b656;verticalAlign=top;fillColor=#fff2cc;perimeterSpacing=0;glass=0;shadow=0;" parent="1" vertex="1">
          <mxGeometry x="220" y="40" width="190" height="30" as="geometry" />
        </mxCell>
        <mxCell id="Akp1j36LhRfIPDxdq11B-77" value="权限控制" style="rounded=0;whiteSpace=wrap;html=1;sketch=0;fontSize=14;align=center;strokeColor=#d79b00;fillColor=#ffe6cc;perimeterSpacing=0;glass=0;shadow=0;" parent="1" vertex="1">
          <mxGeometry x="170" y="150" width="140" height="30" as="geometry" />
        </mxCell>
        <mxCell id="Akp1j36LhRfIPDxdq11B-78" value="流量控制" style="rounded=0;whiteSpace=wrap;html=1;sketch=0;fontSize=14;align=center;strokeColor=#d79b00;fillColor=#ffe6cc;perimeterSpacing=0;glass=0;shadow=0;" parent="1" vertex="1">
          <mxGeometry x="470" y="150" width="140" height="30" as="geometry" />
        </mxCell>
        <mxCell id="Akp1j36LhRfIPDxdq11B-81" value="用户认证" style="rounded=0;whiteSpace=wrap;html=1;sketch=0;fontSize=14;align=center;strokeColor=#d79b00;fillColor=#ffe6cc;perimeterSpacing=0;glass=0;shadow=0;" parent="1" vertex="1">
          <mxGeometry x="20" y="150" width="140" height="30" as="geometry" />
        </mxCell>
        <mxCell id="ny-wrZLaJV0iAhvgu-0p-1" value="注册中心" style="rounded=0;whiteSpace=wrap;html=1;fillColor=#dae8fc;strokeColor=#6c8ebf;fontStyle=1;fontSize=14;verticalAlign=top;gradientColor=#7ea6e0;sketch=0;" parent="1" vertex="1">
          <mxGeometry x="540" y="230" width="160" height="60" as="geometry" />
        </mxCell>
        <mxCell id="ny-wrZLaJV0iAhvgu-0p-2" value="配置中心" style="rounded=0;whiteSpace=wrap;html=1;fillColor=#dae8fc;strokeColor=#6c8ebf;fontStyle=1;fontSize=14;verticalAlign=top;gradientColor=#7ea6e0;sketch=0;" parent="1" vertex="1">
          <mxGeometry x="540" y="330" width="160" height="250" as="geometry" />
        </mxCell>
        <mxCell id="ny-wrZLaJV0iAhvgu-0p-3" value="订单配置" style="rounded=0;whiteSpace=wrap;html=1;sketch=0;fontSize=14;align=center;strokeColor=#6c8ebf;fillColor=#dae8fc;perimeterSpacing=0;glass=0;shadow=0;" parent="1" vertex="1">
          <mxGeometry x="550" y="360" width="140" height="30" as="geometry" />
        </mxCell>
        <mxCell id="ny-wrZLaJV0iAhvgu-0p-4" value="用户配置" style="rounded=0;whiteSpace=wrap;html=1;sketch=0;fontSize=14;align=center;strokeColor=#6c8ebf;fillColor=#dae8fc;perimeterSpacing=0;glass=0;shadow=0;" parent="1" vertex="1">
          <mxGeometry x="550" y="400" width="140" height="30" as="geometry" />
        </mxCell>
        <mxCell id="ny-wrZLaJV0iAhvgu-0p-5" value="公共配置" style="rounded=0;whiteSpace=wrap;html=1;sketch=0;fontSize=14;align=center;strokeColor=#6c8ebf;fillColor=#dae8fc;perimeterSpacing=0;glass=0;shadow=0;" parent="1" vertex="1">
          <mxGeometry x="550" y="480" width="140" height="30" as="geometry" />
        </mxCell>
        <mxCell id="ny-wrZLaJV0iAhvgu-0p-6" value="管理员配置" style="rounded=0;whiteSpace=wrap;html=1;sketch=0;fontSize=14;align=center;strokeColor=#6c8ebf;fillColor=#dae8fc;perimeterSpacing=0;glass=0;shadow=0;" parent="1" vertex="1">
          <mxGeometry x="550" y="440" width="140" height="30" as="geometry" />
        </mxCell>
        <mxCell id="ny-wrZLaJV0iAhvgu-0p-10" value="MQ" style="rounded=0;whiteSpace=wrap;html=1;sketch=0;fontSize=14;align=center;strokeColor=#6c8ebf;fillColor=#dae8fc;verticalAlign=top;perimeterSpacing=0;glass=0;shadow=0;gradientColor=#7ea6e0;fontStyle=1" parent="1" vertex="1">
          <mxGeometry x="740" y="230" width="80" height="350" as="geometry" />
        </mxCell>
        <mxCell id="ny-wrZLaJV0iAhvgu-0p-13" value="负载均衡" style="rounded=0;whiteSpace=wrap;html=1;sketch=0;fontSize=14;align=center;strokeColor=#d79b00;fillColor=#ffe6cc;perimeterSpacing=0;glass=0;shadow=0;" parent="1" vertex="1">
          <mxGeometry x="320" y="150" width="140" height="30" as="geometry" />
        </mxCell>
      </root>
    </mxGraphModel>
  </diagram>
  <diagram id="cSxVZI423A_1Zn6BW0b-" name="包活干-2.0.0">
    <mxGraphModel dx="1102" dy="594" grid="1" gridSize="10" guides="1" tooltips="1" connect="1" arrows="1" fold="1" page="1" pageScale="1" pageWidth="827" pageHeight="1169" math="0" shadow="0">
      <root>
        <mxCell id="vlY1bw2PHF4fA2tnyDuH-0" />
        <mxCell id="vlY1bw2PHF4fA2tnyDuH-1" parent="vlY1bw2PHF4fA2tnyDuH-0" />
        <mxCell id="hGfeV6U0cq8fxq9w8HBr-0" value="车务单流程" style="swimlane;html=1;childLayout=stackLayout;resizeParent=1;resizeParentMax=0;startSize=20;fontSize=14;fillColor=#f5f5f5;strokeColor=#666666;fontColor=#333333;" parent="vlY1bw2PHF4fA2tnyDuH-1" vertex="1">
          <mxGeometry x="20" y="10" width="780" height="1150" as="geometry" />
        </mxCell>
        <mxCell id="hGfeV6U0cq8fxq9w8HBr-1" value="商户" style="swimlane;html=1;startSize=20;fontSize=14;fillColor=#f5f5f5;strokeColor=#666666;fontColor=#333333;" parent="hGfeV6U0cq8fxq9w8HBr-0" vertex="1">
          <mxGeometry y="20" width="190" height="1130" as="geometry" />
        </mxCell>
        <mxCell id="uM4sacbQZuZKDLQfzfDB-1" value="" style="html=1;verticalAlign=bottom;endArrow=classic;fontSize=14;startArrow=none;startFill=0;endFill=1;edgeStyle=orthogonalEdgeStyle;rounded=1;fillColor=#fff2cc;strokeColor=#d6b656;jumpStyle=arc;jumpSize=10;" parent="hGfeV6U0cq8fxq9w8HBr-1" source="uM4sacbQZuZKDLQfzfDB-0" target="uM4sacbQZuZKDLQfzfDB-2" edge="1">
          <mxGeometry relative="1" as="geometry">
            <mxPoint x="95" y="90" as="targetPoint" />
          </mxGeometry>
        </mxCell>
        <mxCell id="uM4sacbQZuZKDLQfzfDB-2" value="发起车务单" style="rounded=1;whiteSpace=wrap;html=1;arcSize=40;sketch=0;fontSize=14;fillColor=#fff2cc;strokeColor=#d6b656;" parent="hGfeV6U0cq8fxq9w8HBr-1" vertex="1">
          <mxGeometry x="50" y="90" width="100" height="30" as="geometry" />
        </mxCell>
        <mxCell id="uM4sacbQZuZKDLQfzfDB-0" value="开始" style="ellipse;html=1;shape=startState;rounded=0;sketch=0;fontSize=14;fillColor=#fff2cc;strokeColor=#d6b656;" parent="hGfeV6U0cq8fxq9w8HBr-1" vertex="1">
          <mxGeometry x="85" y="30" width="30" height="30" as="geometry" />
        </mxCell>
        <mxCell id="uM4sacbQZuZKDLQfzfDB-45" value="" style="edgeStyle=orthogonalEdgeStyle;rounded=1;sketch=0;orthogonalLoop=1;jettySize=auto;html=1;startArrow=none;startFill=0;endArrow=classic;endFill=1;fontSize=14;fillColor=#fff2cc;strokeColor=#d6b656;verticalAlign=bottom;jumpStyle=arc;jumpSize=10;" parent="hGfeV6U0cq8fxq9w8HBr-1" source="uM4sacbQZuZKDLQfzfDB-2" target="uM4sacbQZuZKDLQfzfDB-44" edge="1">
          <mxGeometry relative="1" as="geometry" />
        </mxCell>
        <mxCell id="uM4sacbQZuZKDLQfzfDB-44" value="填写车辆信息" style="rounded=1;whiteSpace=wrap;html=1;arcSize=40;sketch=0;fontSize=14;fillColor=#fff2cc;strokeColor=#d6b656;" parent="hGfeV6U0cq8fxq9w8HBr-1" vertex="1">
          <mxGeometry x="50" y="150" width="100" height="30" as="geometry" />
        </mxCell>
        <mxCell id="U9z_BkOGUOzttSNrtym3-2" value="" style="edgeStyle=orthogonalEdgeStyle;rounded=1;orthogonalLoop=1;jettySize=auto;html=1;fillColor=#e1d5e7;strokeColor=#9673a6;fontSize=14;verticalAlign=bottom;dashed=1;jumpStyle=arc;jumpSize=10;" parent="hGfeV6U0cq8fxq9w8HBr-1" source="uM4sacbQZuZKDLQfzfDB-44" target="U9z_BkOGUOzttSNrtym3-1" edge="1">
          <mxGeometry relative="1" as="geometry" />
        </mxCell>
        <mxCell id="U9z_BkOGUOzttSNrtym3-1" value="生成车务单" style="rounded=1;whiteSpace=wrap;html=1;arcSize=40;sketch=0;fontSize=14;fillColor=#e1d5e7;strokeColor=#9673a6;dashed=1;" parent="hGfeV6U0cq8fxq9w8HBr-1" vertex="1">
          <mxGeometry x="50" y="210" width="100" height="30" as="geometry" />
        </mxCell>
        <mxCell id="U9z_BkOGUOzttSNrtym3-7" value="" style="edgeStyle=orthogonalEdgeStyle;rounded=1;orthogonalLoop=1;jettySize=auto;html=1;fillColor=#e1d5e7;strokeColor=#9673a6;fontSize=14;verticalAlign=bottom;dashed=1;jumpStyle=arc;jumpSize=10;" parent="hGfeV6U0cq8fxq9w8HBr-1" source="U9z_BkOGUOzttSNrtym3-1" target="U9z_BkOGUOzttSNrtym3-6" edge="1">
          <mxGeometry relative="1" as="geometry" />
        </mxCell>
        <mxCell id="U9z_BkOGUOzttSNrtym3-14" style="edgeStyle=orthogonalEdgeStyle;rounded=1;orthogonalLoop=1;jettySize=auto;html=1;exitX=0.5;exitY=1;exitDx=0;exitDy=0;entryX=0.5;entryY=0;entryDx=0;entryDy=0;fillColor=#e1d5e7;strokeColor=#9673a6;fontSize=14;verticalAlign=bottom;dashed=1;jumpStyle=arc;jumpSize=10;" parent="hGfeV6U0cq8fxq9w8HBr-1" source="U9z_BkOGUOzttSNrtym3-6" target="U9z_BkOGUOzttSNrtym3-3" edge="1">
          <mxGeometry relative="1" as="geometry" />
        </mxCell>
        <mxCell id="U9z_BkOGUOzttSNrtym3-6" value="生成寄件单1&lt;br&gt;商户-&amp;gt;广联" style="rounded=1;whiteSpace=wrap;html=1;arcSize=40;sketch=0;fontSize=14;fillColor=#e1d5e7;strokeColor=#9673a6;dashed=1;" parent="hGfeV6U0cq8fxq9w8HBr-1" vertex="1">
          <mxGeometry x="50" y="270" width="100" height="30" as="geometry" />
        </mxCell>
        <mxCell id="U9z_BkOGUOzttSNrtym3-5" style="edgeStyle=orthogonalEdgeStyle;rounded=1;orthogonalLoop=1;jettySize=auto;html=1;exitX=0.5;exitY=1;exitDx=0;exitDy=0;entryX=0.5;entryY=0;entryDx=0;entryDy=0;fillColor=#fff2cc;strokeColor=#d6b656;fontSize=14;verticalAlign=bottom;jumpStyle=arc;jumpSize=10;" parent="hGfeV6U0cq8fxq9w8HBr-1" source="U9z_BkOGUOzttSNrtym3-3" target="uM4sacbQZuZKDLQfzfDB-6" edge="1">
          <mxGeometry relative="1" as="geometry" />
        </mxCell>
        <mxCell id="uM4sacbQZuZKDLQfzfDB-6" value="寄送资料" style="rounded=1;whiteSpace=wrap;html=1;arcSize=40;sketch=0;fontSize=14;fillColor=#fff2cc;strokeColor=#d6b656;" parent="hGfeV6U0cq8fxq9w8HBr-1" vertex="1">
          <mxGeometry x="50" y="450" width="100" height="30" as="geometry" />
        </mxCell>
        <mxCell id="U9z_BkOGUOzttSNrtym3-3" value="填写寄件单1" style="rounded=1;whiteSpace=wrap;html=1;arcSize=40;sketch=0;fontSize=14;fillColor=#fff2cc;strokeColor=#d6b656;" parent="hGfeV6U0cq8fxq9w8HBr-1" vertex="1">
          <mxGeometry x="50" y="390" width="100" height="30" as="geometry" />
        </mxCell>
        <mxCell id="uM4sacbQZuZKDLQfzfDB-49" value="签收资料" style="whiteSpace=wrap;html=1;rounded=1;fontSize=14;arcSize=40;sketch=0;fillColor=#fff2cc;strokeColor=#d6b656;" parent="hGfeV6U0cq8fxq9w8HBr-1" vertex="1">
          <mxGeometry x="50" y="870" width="100" height="30" as="geometry" />
        </mxCell>
        <mxCell id="3tJM6_eDw460gHnOPFZU-0" value="" style="edgeStyle=orthogonalEdgeStyle;rounded=1;orthogonalLoop=1;jettySize=auto;html=1;fillColor=#e1d5e7;strokeColor=#9673a6;fontSize=14;verticalAlign=bottom;dashed=1;jumpStyle=arc;jumpSize=10;" edge="1" parent="hGfeV6U0cq8fxq9w8HBr-0">
          <mxGeometry relative="1" as="geometry">
            <mxPoint x="100" y="200" as="sourcePoint" />
            <mxPoint x="100" y="230" as="targetPoint" />
          </mxGeometry>
        </mxCell>
        <mxCell id="3tJM6_eDw460gHnOPFZU-1" value="" style="edgeStyle=orthogonalEdgeStyle;rounded=1;orthogonalLoop=1;jettySize=auto;html=1;fillColor=#fff2cc;strokeColor=#d6b656;fontSize=14;verticalAlign=bottom;jumpStyle=arc;jumpSize=10;" edge="1" parent="hGfeV6U0cq8fxq9w8HBr-0">
          <mxGeometry relative="1" as="geometry">
            <mxPoint x="100" y="200" as="sourcePoint" />
            <mxPoint x="100" y="230" as="targetPoint" />
          </mxGeometry>
        </mxCell>
        <mxCell id="hGfeV6U0cq8fxq9w8HBr-2" value="运营" style="swimlane;html=1;startSize=20;fontSize=14;fillColor=#f5f5f5;strokeColor=#666666;fontColor=#333333;" parent="hGfeV6U0cq8fxq9w8HBr-0" vertex="1">
          <mxGeometry x="190" y="20" width="210" height="1130" as="geometry" />
        </mxCell>
        <mxCell id="uM4sacbQZuZKDLQfzfDB-18" value="指派服务商" style="rounded=1;whiteSpace=wrap;html=1;arcSize=40;sketch=0;fontSize=14;fillColor=#fff2cc;strokeColor=#d6b656;" parent="hGfeV6U0cq8fxq9w8HBr-2" vertex="1">
          <mxGeometry x="60" y="210" width="100" height="30" as="geometry" />
        </mxCell>
        <mxCell id="U9z_BkOGUOzttSNrtym3-15" value="指派技工" style="rounded=1;whiteSpace=wrap;html=1;arcSize=40;sketch=0;fontSize=14;fillColor=#fff2cc;strokeColor=#d6b656;" parent="hGfeV6U0cq8fxq9w8HBr-2" vertex="1">
          <mxGeometry x="60" y="330" width="100" height="30" as="geometry" />
        </mxCell>
        <mxCell id="U9z_BkOGUOzttSNrtym3-36" style="edgeStyle=orthogonalEdgeStyle;rounded=1;orthogonalLoop=1;jettySize=auto;html=1;exitX=0.5;exitY=1;exitDx=0;exitDy=0;entryX=0.5;entryY=0;entryDx=0;entryDy=0;fontSize=14;fillColor=#fff2cc;strokeColor=#d6b656;jumpStyle=arc;jumpSize=10;" parent="hGfeV6U0cq8fxq9w8HBr-2" source="U9z_BkOGUOzttSNrtym3-34" target="uM4sacbQZuZKDLQfzfDB-28" edge="1">
          <mxGeometry relative="1" as="geometry" />
        </mxCell>
        <mxCell id="U9z_BkOGUOzttSNrtym3-34" value="填写寄件单2" style="rounded=1;whiteSpace=wrap;html=1;arcSize=40;sketch=0;fontSize=14;fillColor=#fff2cc;strokeColor=#d6b656;" parent="hGfeV6U0cq8fxq9w8HBr-2" vertex="1">
          <mxGeometry x="60" y="570" width="100" height="30" as="geometry" />
        </mxCell>
        <mxCell id="U9z_BkOGUOzttSNrtym3-10" value="" style="edgeStyle=orthogonalEdgeStyle;rounded=1;orthogonalLoop=1;jettySize=auto;html=1;fillColor=#fff2cc;strokeColor=#d6b656;fontSize=14;verticalAlign=bottom;jumpStyle=arc;jumpSize=10;" parent="hGfeV6U0cq8fxq9w8HBr-2" source="uM4sacbQZuZKDLQfzfDB-7" target="U9z_BkOGUOzttSNrtym3-9" edge="1">
          <mxGeometry relative="1" as="geometry" />
        </mxCell>
        <mxCell id="U9z_BkOGUOzttSNrtym3-9" value="新建寄件单2&lt;br&gt;广联-&amp;gt;服务商" style="rounded=1;whiteSpace=wrap;html=1;arcSize=40;sketch=0;fontSize=14;fillColor=#fff2cc;strokeColor=#d6b656;" parent="hGfeV6U0cq8fxq9w8HBr-2" vertex="1">
          <mxGeometry x="60" y="510" width="100" height="30" as="geometry" />
        </mxCell>
        <mxCell id="uM4sacbQZuZKDLQfzfDB-7" value="签收资料" style="rounded=1;whiteSpace=wrap;html=1;arcSize=40;sketch=0;fontSize=14;fillColor=#fff2cc;strokeColor=#d6b656;" parent="hGfeV6U0cq8fxq9w8HBr-2" vertex="1">
          <mxGeometry x="60" y="450" width="100" height="30" as="geometry" />
        </mxCell>
        <mxCell id="U9z_BkOGUOzttSNrtym3-35" value="" style="edgeStyle=orthogonalEdgeStyle;rounded=1;orthogonalLoop=1;jettySize=auto;html=1;fontSize=14;fillColor=#fff2cc;strokeColor=#d6b656;jumpStyle=arc;jumpSize=10;" parent="hGfeV6U0cq8fxq9w8HBr-2" source="U9z_BkOGUOzttSNrtym3-9" target="U9z_BkOGUOzttSNrtym3-34" edge="1">
          <mxGeometry relative="1" as="geometry" />
        </mxCell>
        <mxCell id="uM4sacbQZuZKDLQfzfDB-28" value="寄送资料" style="whiteSpace=wrap;html=1;rounded=1;fontSize=14;arcSize=40;sketch=0;fillColor=#fff2cc;strokeColor=#d6b656;" parent="hGfeV6U0cq8fxq9w8HBr-2" vertex="1">
          <mxGeometry x="60" y="630" width="100" height="30" as="geometry" />
        </mxCell>
        <mxCell id="uM4sacbQZuZKDLQfzfDB-41" value="签收资料" style="whiteSpace=wrap;html=1;rounded=1;fontSize=14;arcSize=40;sketch=0;fillColor=#fff2cc;strokeColor=#d6b656;" parent="hGfeV6U0cq8fxq9w8HBr-2" vertex="1">
          <mxGeometry x="60" y="750" width="100" height="30" as="geometry" />
        </mxCell>
        <mxCell id="U9z_BkOGUOzttSNrtym3-33" value="" style="edgeStyle=orthogonalEdgeStyle;rounded=1;orthogonalLoop=1;jettySize=auto;html=1;fontSize=14;fillColor=#fff2cc;strokeColor=#d6b656;jumpStyle=arc;jumpSize=10;" parent="hGfeV6U0cq8fxq9w8HBr-2" source="uM4sacbQZuZKDLQfzfDB-41" target="U9z_BkOGUOzttSNrtym3-32" edge="1">
          <mxGeometry relative="1" as="geometry" />
        </mxCell>
        <mxCell id="U9z_BkOGUOzttSNrtym3-37" style="edgeStyle=orthogonalEdgeStyle;rounded=1;orthogonalLoop=1;jettySize=auto;html=1;exitX=0.5;exitY=1;exitDx=0;exitDy=0;entryX=0.5;entryY=0;entryDx=0;entryDy=0;fontSize=14;fillColor=#fff2cc;strokeColor=#d6b656;jumpStyle=arc;jumpSize=10;" parent="hGfeV6U0cq8fxq9w8HBr-2" source="U9z_BkOGUOzttSNrtym3-32" target="uM4sacbQZuZKDLQfzfDB-47" edge="1">
          <mxGeometry relative="1" as="geometry" />
        </mxCell>
        <mxCell id="U9z_BkOGUOzttSNrtym3-32" value="填写寄件单3" style="whiteSpace=wrap;html=1;rounded=1;fontSize=14;arcSize=40;sketch=0;fillColor=#fff2cc;strokeColor=#d6b656;" parent="hGfeV6U0cq8fxq9w8HBr-2" vertex="1">
          <mxGeometry x="60" y="810" width="100" height="30" as="geometry" />
        </mxCell>
        <mxCell id="uM4sacbQZuZKDLQfzfDB-47" value="寄送资料" style="whiteSpace=wrap;html=1;rounded=1;fontSize=14;arcSize=40;sketch=0;fillColor=#fff2cc;strokeColor=#d6b656;" parent="hGfeV6U0cq8fxq9w8HBr-2" vertex="1">
          <mxGeometry x="60" y="870" width="100" height="30" as="geometry" />
        </mxCell>
        <mxCell id="3tJM6_eDw460gHnOPFZU-5" value="" style="edgeStyle=orthogonalEdgeStyle;rounded=1;orthogonalLoop=1;jettySize=auto;html=1;fillColor=#fff2cc;strokeColor=#d6b656;jumpStyle=arc;jumpSize=10;" edge="1" parent="hGfeV6U0cq8fxq9w8HBr-2" source="U9z_BkOGUOzttSNrtym3-15" target="3tJM6_eDw460gHnOPFZU-4">
          <mxGeometry relative="1" as="geometry" />
        </mxCell>
        <mxCell id="3tJM6_eDw460gHnOPFZU-4" value="绑定服务商" style="rounded=1;whiteSpace=wrap;html=1;arcSize=40;sketch=0;fontSize=14;fillColor=#e1d5e7;strokeColor=#9673a6;dashed=1;" vertex="1" parent="hGfeV6U0cq8fxq9w8HBr-2">
          <mxGeometry x="60" y="390" width="100" height="30" as="geometry" />
        </mxCell>
        <mxCell id="uM4sacbQZuZKDLQfzfDB-33" value="拒单" style="edgeStyle=orthogonalEdgeStyle;rounded=1;sketch=0;orthogonalLoop=1;jettySize=auto;html=1;exitX=0.5;exitY=0;exitDx=0;exitDy=0;entryX=1;entryY=0.5;entryDx=0;entryDy=0;startArrow=none;startFill=0;endArrow=classic;endFill=1;fontSize=14;fillColor=#fff2cc;strokeColor=#d6b656;verticalAlign=bottom;dashed=1;jumpStyle=arc;jumpSize=10;" parent="hGfeV6U0cq8fxq9w8HBr-0" source="uM4sacbQZuZKDLQfzfDB-20" target="uM4sacbQZuZKDLQfzfDB-18" edge="1">
          <mxGeometry relative="1" as="geometry" />
        </mxCell>
        <mxCell id="uM4sacbQZuZKDLQfzfDB-34" value="拒单" style="edgeStyle=orthogonalEdgeStyle;rounded=1;sketch=0;orthogonalLoop=1;jettySize=auto;html=1;exitX=0.5;exitY=0;exitDx=0;exitDy=0;entryX=1;entryY=0.5;entryDx=0;entryDy=0;startArrow=none;startFill=0;endArrow=classic;endFill=1;fontSize=14;fillColor=#fff2cc;strokeColor=#d6b656;verticalAlign=bottom;dashed=1;jumpStyle=arc;jumpSize=10;" parent="hGfeV6U0cq8fxq9w8HBr-0" source="uM4sacbQZuZKDLQfzfDB-26" target="uM4sacbQZuZKDLQfzfDB-24" edge="1">
          <mxGeometry relative="1" as="geometry" />
        </mxCell>
        <mxCell id="uM4sacbQZuZKDLQfzfDB-31" value="" style="edgeStyle=orthogonalEdgeStyle;rounded=1;sketch=0;orthogonalLoop=1;jettySize=auto;html=1;startArrow=none;startFill=0;endArrow=classic;endFill=1;fontSize=14;entryX=0;entryY=0.5;entryDx=0;entryDy=0;exitX=1;exitY=0.5;exitDx=0;exitDy=0;fillColor=#fff2cc;strokeColor=#d6b656;verticalAlign=bottom;jumpStyle=arc;jumpSize=10;" parent="hGfeV6U0cq8fxq9w8HBr-0" source="uM4sacbQZuZKDLQfzfDB-28" target="uM4sacbQZuZKDLQfzfDB-30" edge="1">
          <mxGeometry relative="1" as="geometry" />
        </mxCell>
        <mxCell id="uM4sacbQZuZKDLQfzfDB-5" value="" style="html=1;verticalAlign=bottom;endArrow=classic;fontSize=14;startArrow=none;startFill=0;endFill=1;edgeStyle=orthogonalEdgeStyle;rounded=1;fillColor=#fff2cc;strokeColor=#d6b656;jumpStyle=arc;jumpSize=10;" parent="hGfeV6U0cq8fxq9w8HBr-0" source="uM4sacbQZuZKDLQfzfDB-6" target="uM4sacbQZuZKDLQfzfDB-7" edge="1">
          <mxGeometry relative="1" as="geometry">
            <mxPoint x="210" y="415" as="targetPoint" />
            <mxPoint x="150" y="435" as="sourcePoint" />
          </mxGeometry>
        </mxCell>
        <mxCell id="uM4sacbQZuZKDLQfzfDB-50" value="" style="edgeStyle=orthogonalEdgeStyle;rounded=1;sketch=0;orthogonalLoop=1;jettySize=auto;html=1;startArrow=none;startFill=0;endArrow=classic;endFill=1;fontSize=14;fillColor=#fff2cc;strokeColor=#d6b656;verticalAlign=bottom;jumpStyle=arc;jumpSize=10;" parent="hGfeV6U0cq8fxq9w8HBr-0" source="uM4sacbQZuZKDLQfzfDB-47" target="uM4sacbQZuZKDLQfzfDB-49" edge="1">
          <mxGeometry relative="1" as="geometry" />
        </mxCell>
        <mxCell id="uM4sacbQZuZKDLQfzfDB-42" value="" style="edgeStyle=orthogonalEdgeStyle;rounded=1;sketch=0;orthogonalLoop=1;jettySize=auto;html=1;startArrow=none;startFill=0;endArrow=classic;endFill=1;fontSize=14;fillColor=#fff2cc;strokeColor=#d6b656;verticalAlign=bottom;jumpStyle=arc;jumpSize=10;" parent="hGfeV6U0cq8fxq9w8HBr-0" source="uM4sacbQZuZKDLQfzfDB-39" target="uM4sacbQZuZKDLQfzfDB-41" edge="1">
          <mxGeometry relative="1" as="geometry" />
        </mxCell>
        <mxCell id="U9z_BkOGUOzttSNrtym3-30" value="" style="edgeStyle=orthogonalEdgeStyle;rounded=1;orthogonalLoop=1;jettySize=auto;html=1;fontSize=14;fillColor=#fff2cc;strokeColor=#d6b656;jumpStyle=arc;jumpSize=10;entryX=0.5;entryY=0;entryDx=0;entryDy=0;" parent="hGfeV6U0cq8fxq9w8HBr-0" source="uM4sacbQZuZKDLQfzfDB-37" target="uM4sacbQZuZKDLQfzfDB-39" edge="1">
          <mxGeometry relative="1" as="geometry">
            <mxPoint x="550" y="725" as="targetPoint" />
          </mxGeometry>
        </mxCell>
        <mxCell id="hGfeV6U0cq8fxq9w8HBr-3" value="服务商" style="swimlane;html=1;startSize=20;fontSize=14;fillColor=#f5f5f5;strokeColor=#666666;fontColor=#333333;" parent="hGfeV6U0cq8fxq9w8HBr-0" vertex="1">
          <mxGeometry x="400" y="20" width="190" height="1130" as="geometry">
            <mxRectangle x="520" y="20" width="30" height="380" as="alternateBounds" />
          </mxGeometry>
        </mxCell>
        <mxCell id="U9z_BkOGUOzttSNrtym3-23" style="edgeStyle=orthogonalEdgeStyle;rounded=1;orthogonalLoop=1;jettySize=auto;html=1;exitX=0.5;exitY=1;exitDx=0;exitDy=0;entryX=0.5;entryY=0;entryDx=0;entryDy=0;fillColor=#fff2cc;strokeColor=#d6b656;fontSize=14;verticalAlign=bottom;jumpStyle=arc;jumpSize=10;" parent="hGfeV6U0cq8fxq9w8HBr-3" source="uM4sacbQZuZKDLQfzfDB-20" target="uM4sacbQZuZKDLQfzfDB-24" edge="1">
          <mxGeometry relative="1" as="geometry" />
        </mxCell>
        <mxCell id="uM4sacbQZuZKDLQfzfDB-20" value="接单" style="whiteSpace=wrap;html=1;rounded=1;fontSize=14;arcSize=40;sketch=0;fillColor=#fff2cc;strokeColor=#d6b656;" parent="hGfeV6U0cq8fxq9w8HBr-3" vertex="1">
          <mxGeometry x="50" y="270" width="100" height="30" as="geometry" />
        </mxCell>
        <mxCell id="uM4sacbQZuZKDLQfzfDB-24" value="指派技工" style="whiteSpace=wrap;html=1;rounded=1;fontSize=14;arcSize=40;sketch=0;fillColor=#fff2cc;strokeColor=#d6b656;" parent="hGfeV6U0cq8fxq9w8HBr-3" vertex="1">
          <mxGeometry x="50" y="330" width="100" height="30" as="geometry" />
        </mxCell>
        <mxCell id="uM4sacbQZuZKDLQfzfDB-30" value="签收资料" style="whiteSpace=wrap;html=1;rounded=1;fontSize=14;arcSize=40;sketch=0;fillColor=#fff2cc;strokeColor=#d6b656;" parent="hGfeV6U0cq8fxq9w8HBr-3" vertex="1">
          <mxGeometry x="50" y="630" width="100" height="30" as="geometry" />
        </mxCell>
        <mxCell id="uM4sacbQZuZKDLQfzfDB-39" value="归还资料&lt;br&gt;商户-&amp;gt;广联" style="whiteSpace=wrap;html=1;rounded=1;fontSize=14;arcSize=40;sketch=0;fillColor=#fff2cc;strokeColor=#d6b656;" parent="hGfeV6U0cq8fxq9w8HBr-3" vertex="1">
          <mxGeometry x="50" y="750" width="100" height="30" as="geometry" />
        </mxCell>
        <mxCell id="hGfeV6U0cq8fxq9w8HBr-4" value="技工" style="swimlane;html=1;startSize=20;fontSize=14;fillColor=#f5f5f5;strokeColor=#666666;fontColor=#333333;" parent="hGfeV6U0cq8fxq9w8HBr-0" vertex="1">
          <mxGeometry x="590" y="20" width="190" height="1130" as="geometry">
            <mxRectangle x="590" y="20" width="30" height="1130" as="alternateBounds" />
          </mxGeometry>
        </mxCell>
        <mxCell id="uM4sacbQZuZKDLQfzfDB-26" value="接单" style="whiteSpace=wrap;html=1;rounded=1;fontSize=14;arcSize=40;sketch=0;fillColor=#fff2cc;strokeColor=#d6b656;" parent="hGfeV6U0cq8fxq9w8HBr-4" vertex="1">
          <mxGeometry x="50" y="390" width="100" height="30" as="geometry" />
        </mxCell>
        <mxCell id="uM4sacbQZuZKDLQfzfDB-38" value="" style="edgeStyle=orthogonalEdgeStyle;rounded=1;sketch=0;orthogonalLoop=1;jettySize=auto;html=1;startArrow=none;startFill=0;endArrow=classic;endFill=1;fontSize=14;fillColor=#fff2cc;strokeColor=#d6b656;verticalAlign=bottom;jumpStyle=arc;jumpSize=10;" parent="hGfeV6U0cq8fxq9w8HBr-4" source="uM4sacbQZuZKDLQfzfDB-35" target="uM4sacbQZuZKDLQfzfDB-37" edge="1">
          <mxGeometry relative="1" as="geometry" />
        </mxCell>
        <mxCell id="uM4sacbQZuZKDLQfzfDB-35" value="开始办理" style="whiteSpace=wrap;html=1;rounded=1;fontSize=14;arcSize=40;sketch=0;fillColor=#fff2cc;strokeColor=#d6b656;" parent="hGfeV6U0cq8fxq9w8HBr-4" vertex="1">
          <mxGeometry x="50" y="630" width="100" height="30" as="geometry" />
        </mxCell>
        <mxCell id="uM4sacbQZuZKDLQfzfDB-37" value="全部办理完成" style="whiteSpace=wrap;html=1;rounded=1;fontSize=14;arcSize=40;sketch=0;fillColor=#fff2cc;strokeColor=#d6b656;" parent="hGfeV6U0cq8fxq9w8HBr-4" vertex="1">
          <mxGeometry x="50" y="690" width="100" height="30" as="geometry" />
        </mxCell>
        <mxCell id="uM4sacbQZuZKDLQfzfDB-36" value="" style="edgeStyle=orthogonalEdgeStyle;rounded=1;sketch=0;orthogonalLoop=1;jettySize=auto;html=1;startArrow=none;startFill=0;endArrow=classic;endFill=1;fontSize=14;fillColor=#fff2cc;strokeColor=#d6b656;verticalAlign=bottom;exitX=0.5;exitY=1;exitDx=0;exitDy=0;entryX=0.5;entryY=0;entryDx=0;entryDy=0;jumpStyle=arc;jumpSize=10;" parent="hGfeV6U0cq8fxq9w8HBr-4" source="uM4sacbQZuZKDLQfzfDB-26" target="uM4sacbQZuZKDLQfzfDB-35" edge="1">
          <mxGeometry relative="1" as="geometry">
            <mxPoint x="110" y="420" as="sourcePoint" />
          </mxGeometry>
        </mxCell>
        <mxCell id="U9z_BkOGUOzttSNrtym3-28" value="" style="edgeStyle=orthogonalEdgeStyle;rounded=1;orthogonalLoop=1;jettySize=auto;html=1;fontSize=14;fillColor=#e1d5e7;strokeColor=#9673a6;dashed=1;jumpStyle=arc;jumpSize=10;" parent="hGfeV6U0cq8fxq9w8HBr-4" source="uM4sacbQZuZKDLQfzfDB-37" target="U9z_BkOGUOzttSNrtym3-27" edge="1">
          <mxGeometry relative="1" as="geometry" />
        </mxCell>
        <mxCell id="U9z_BkOGUOzttSNrtym3-27" value="生成寄件单3&lt;br&gt;广联-&amp;gt;商户" style="whiteSpace=wrap;html=1;rounded=1;fontSize=14;arcSize=40;sketch=0;fillColor=#e1d5e7;strokeColor=#9673a6;dashed=1;" parent="hGfeV6U0cq8fxq9w8HBr-4" vertex="1">
          <mxGeometry x="50" y="750" width="100" height="30" as="geometry" />
        </mxCell>
        <mxCell id="U9z_BkOGUOzttSNrtym3-8" value="分支1" style="edgeStyle=orthogonalEdgeStyle;rounded=1;orthogonalLoop=1;jettySize=auto;html=1;exitX=1;exitY=0.5;exitDx=0;exitDy=0;entryX=0;entryY=0.5;entryDx=0;entryDy=0;fillColor=#fff2cc;strokeColor=#d6b656;fontSize=14;verticalAlign=bottom;jumpStyle=arc;jumpSize=10;" parent="hGfeV6U0cq8fxq9w8HBr-0" source="U9z_BkOGUOzttSNrtym3-1" target="uM4sacbQZuZKDLQfzfDB-18" edge="1">
          <mxGeometry x="0.4" relative="1" as="geometry">
            <mxPoint as="offset" />
          </mxGeometry>
        </mxCell>
        <mxCell id="U9z_BkOGUOzttSNrtym3-17" value="分支2" style="edgeStyle=orthogonalEdgeStyle;rounded=1;orthogonalLoop=1;jettySize=auto;html=1;exitX=1;exitY=0.5;exitDx=0;exitDy=0;entryX=0;entryY=0.5;entryDx=0;entryDy=0;fillColor=#fff2cc;strokeColor=#d6b656;fontSize=14;verticalAlign=bottom;jumpStyle=arc;jumpSize=10;" parent="hGfeV6U0cq8fxq9w8HBr-0" source="U9z_BkOGUOzttSNrtym3-1" target="U9z_BkOGUOzttSNrtym3-15" edge="1">
          <mxGeometry x="-0.4091" relative="1" as="geometry">
            <Array as="points">
              <mxPoint x="180" y="245" />
              <mxPoint x="180" y="365" />
            </Array>
            <mxPoint as="offset" />
          </mxGeometry>
        </mxCell>
        <mxCell id="U9z_BkOGUOzttSNrtym3-24" style="edgeStyle=orthogonalEdgeStyle;rounded=1;orthogonalLoop=1;jettySize=auto;html=1;exitX=0.5;exitY=1;exitDx=0;exitDy=0;entryX=0;entryY=0.5;entryDx=0;entryDy=0;fillColor=#fff2cc;strokeColor=#d6b656;fontSize=14;verticalAlign=bottom;jumpStyle=arc;jumpSize=10;" parent="hGfeV6U0cq8fxq9w8HBr-0" source="uM4sacbQZuZKDLQfzfDB-24" target="uM4sacbQZuZKDLQfzfDB-26" edge="1">
          <mxGeometry relative="1" as="geometry">
            <mxPoint x="550" y="425" as="sourcePoint" />
          </mxGeometry>
        </mxCell>
        <mxCell id="U9z_BkOGUOzttSNrtym3-39" value="给资料" style="edgeStyle=orthogonalEdgeStyle;rounded=1;orthogonalLoop=1;jettySize=auto;html=1;exitX=1;exitY=0.5;exitDx=0;exitDy=0;entryX=0;entryY=0.5;entryDx=0;entryDy=0;fontSize=14;fillColor=#fff2cc;strokeColor=#d6b656;jumpStyle=arc;jumpSize=10;" parent="hGfeV6U0cq8fxq9w8HBr-0" source="uM4sacbQZuZKDLQfzfDB-30" target="uM4sacbQZuZKDLQfzfDB-35" edge="1">
          <mxGeometry relative="1" as="geometry" />
        </mxCell>
        <mxCell id="3tJM6_eDw460gHnOPFZU-6" style="edgeStyle=orthogonalEdgeStyle;rounded=1;orthogonalLoop=1;jettySize=auto;html=1;exitX=1;exitY=0.5;exitDx=0;exitDy=0;entryX=0;entryY=0.5;entryDx=0;entryDy=0;fillColor=#fff2cc;strokeColor=#d6b656;jumpStyle=arc;jumpSize=10;" edge="1" parent="hGfeV6U0cq8fxq9w8HBr-0" source="3tJM6_eDw460gHnOPFZU-4" target="uM4sacbQZuZKDLQfzfDB-26">
          <mxGeometry relative="1" as="geometry">
            <mxPoint x="450" y="425" as="targetPoint" />
          </mxGeometry>
        </mxCell>
        <mxCell id="U9z_BkOGUOzttSNrtym3-21" style="edgeStyle=orthogonalEdgeStyle;rounded=1;orthogonalLoop=1;jettySize=auto;html=1;exitX=0.5;exitY=1;exitDx=0;exitDy=0;entryX=0;entryY=0.5;entryDx=0;entryDy=0;fillColor=#fff2cc;strokeColor=#d6b656;fontSize=14;verticalAlign=bottom;jumpStyle=arc;jumpSize=10;" parent="hGfeV6U0cq8fxq9w8HBr-0" source="uM4sacbQZuZKDLQfzfDB-18" target="uM4sacbQZuZKDLQfzfDB-20" edge="1">
          <mxGeometry relative="1" as="geometry">
            <mxPoint x="300" y="290" as="targetPoint" />
          </mxGeometry>
        </mxCell>
      </root>
    </mxGraphModel>
  </diagram>
</mxfile>
